<svg xmlns="http://www.w3.org/2000/svg" xmlns:xlink="http://www.w3.org/1999/xlink" width="1080" zoomAndPan="magnify" viewBox="0 0 810 809.999993" height="1080" preserveAspectRatio="xMidYMid meet" version="1.0"><defs><clipPath id="a2cc6d0a15"><path d="M 48 244 L 763 244 L 763 806.390625 L 48 806.390625 Z M 48 244 " clip-rule="nonzero"/></clipPath><clipPath id="7e67fa29d6"><path d="M 309 3.890625 L 501 3.890625 L 501 195 L 309 195 Z M 309 3.890625 " clip-rule="nonzero"/></clipPath></defs><g clip-path="url(#a2cc6d0a15)"><path fill="#f50a0a" d="M 749.386719 551.324219 L 618.144531 458.589844 L 551.398438 309.535156 C 533.589844 269.90625 492.515625 244.074219 446.949219 244.074219 L 363.839844 244.074219 C 318.273438 244.074219 277.039062 269.90625 259.390625 309.535156 L 192.648438 458.589844 L 61.082031 551.324219 C 46.964844 561.273438 44.078125 580.203125 54.664062 593.683594 C 65.253906 607 85.308594 609.886719 99.429688 599.777344 L 230.671875 507.042969 C 239.65625 500.625 246.878906 492.121094 251.210938 482.332031 L 295.171875 384.464844 L 301.105469 523.726562 C 303.03125 564.800781 275.917969 602.183594 234.523438 615.019531 C 19.527344 681.925781 68.304688 791.667969 127.507812 802.417969 C 148.042969 806.109375 165.371094 806.109375 187.511719 806.109375 C 270.460938 806.109375 337.847656 775.945312 405.074219 752.359375 C 461.230469 732.785156 509.84375 720.59375 565.039062 725.40625 C 569.53125 725.726562 572.738281 729.738281 572.417969 734.230469 C 572.097656 738.722656 568.085938 741.933594 563.59375 741.609375 C 517.546875 737.601562 475.832031 746.265625 429.460938 761.183594 C 488.828125 782.84375 549.632812 806.109375 622.476562 806.109375 C 644.777344 806.109375 661.945312 806.109375 682.644531 802.417969 C 741.847656 791.667969 790.460938 681.925781 575.625 615.019531 C 534.230469 602.183594 507.117188 564.800781 509.042969 523.726562 L 514.980469 384.464844 L 558.941406 482.332031 C 563.273438 492.121094 570.492188 500.625 579.476562 507.042969 L 710.71875 599.777344 C 724.839844 609.726562 745.054688 607 755.484375 593.683594 C 766.394531 580.203125 763.507812 561.273438 749.386719 551.324219 Z M 749.386719 551.324219 " fill-opacity="1" fill-rule="nonzero"/></g><g clip-path="url(#7e67fa29d6)"><path fill="#f50a0a" d="M 500.539062 99.195312 C 500.539062 100.753906 500.5 102.3125 500.425781 103.871094 C 500.347656 105.429688 500.234375 106.984375 500.078125 108.535156 C 499.925781 110.085938 499.738281 111.636719 499.507812 113.179688 C 499.277344 114.722656 499.011719 116.257812 498.707031 117.785156 C 498.402344 119.316406 498.0625 120.839844 497.683594 122.351562 C 497.304688 123.863281 496.886719 125.367188 496.433594 126.859375 C 495.984375 128.351562 495.492188 129.832031 494.96875 131.300781 C 494.441406 132.769531 493.882812 134.222656 493.285156 135.664062 C 492.6875 137.105469 492.054688 138.53125 491.390625 139.941406 C 490.722656 141.351562 490.019531 142.746094 489.285156 144.121094 C 488.550781 145.496094 487.78125 146.851562 486.980469 148.191406 C 486.179688 149.527344 485.34375 150.84375 484.476562 152.140625 C 483.609375 153.4375 482.714844 154.714844 481.785156 155.964844 C 480.855469 157.21875 479.894531 158.449219 478.90625 159.652344 C 477.917969 160.859375 476.898438 162.039062 475.851562 163.195312 C 474.804688 164.351562 473.726562 165.480469 472.625 166.582031 C 471.523438 167.6875 470.394531 168.761719 469.238281 169.808594 C 468.082031 170.855469 466.902344 171.875 465.695312 172.863281 C 464.488281 173.855469 463.261719 174.8125 462.007812 175.742188 C 460.753906 176.671875 459.480469 177.570312 458.183594 178.4375 C 456.886719 179.300781 455.570312 180.136719 454.230469 180.9375 C 452.894531 181.742188 451.535156 182.507812 450.160156 183.246094 C 448.785156 183.980469 447.394531 184.679688 445.984375 185.347656 C 444.574219 186.015625 443.148438 186.644531 441.707031 187.242188 C 440.265625 187.839844 438.8125 188.402344 437.34375 188.925781 C 435.875 189.453125 434.394531 189.941406 432.902344 190.394531 C 431.40625 190.847656 429.90625 191.261719 428.390625 191.640625 C 426.878906 192.019531 425.359375 192.363281 423.828125 192.667969 C 422.296875 192.972656 420.761719 193.238281 419.21875 193.464844 C 417.675781 193.695312 416.128906 193.886719 414.578125 194.039062 C 413.023438 194.191406 411.46875 194.304688 409.910156 194.382812 C 408.355469 194.460938 406.796875 194.496094 405.234375 194.496094 C 403.675781 194.496094 402.117188 194.460938 400.558594 194.382812 C 399 194.304688 397.445312 194.191406 395.894531 194.039062 C 394.339844 193.886719 392.792969 193.695312 391.25 193.464844 C 389.707031 193.238281 388.171875 192.972656 386.640625 192.667969 C 385.113281 192.363281 383.589844 192.019531 382.078125 191.640625 C 380.566406 191.261719 379.0625 190.847656 377.570312 190.394531 C 376.078125 189.941406 374.597656 189.453125 373.128906 188.925781 C 371.660156 188.402344 370.207031 187.839844 368.765625 187.242188 C 367.324219 186.644531 365.898438 186.015625 364.488281 185.347656 C 363.078125 184.679688 361.683594 183.980469 360.308594 183.246094 C 358.933594 182.507812 357.578125 181.742188 356.238281 180.9375 C 354.902344 180.136719 353.585938 179.300781 352.289062 178.4375 C 350.992188 177.570312 349.714844 176.671875 348.464844 175.742188 C 347.210938 174.8125 345.980469 173.855469 344.777344 172.863281 C 343.570312 171.875 342.390625 170.855469 341.234375 169.808594 C 340.078125 168.761719 338.949219 167.6875 337.84375 166.585938 C 336.742188 165.480469 335.667969 164.351562 334.621094 163.195312 C 333.574219 162.039062 332.554688 160.859375 331.566406 159.652344 C 330.574219 158.449219 329.617188 157.21875 328.6875 155.964844 C 327.757812 154.714844 326.859375 153.4375 325.992188 152.140625 C 325.125 150.84375 324.292969 149.527344 323.492188 148.191406 C 322.6875 146.851562 321.921875 145.496094 321.183594 144.121094 C 320.449219 142.746094 319.75 141.351562 319.082031 139.941406 C 318.414062 138.53125 317.78125 137.105469 317.1875 135.664062 C 316.589844 134.222656 316.027344 132.769531 315.503906 131.300781 C 314.976562 129.832031 314.488281 128.351562 314.035156 126.859375 C 313.582031 125.367188 313.167969 123.863281 312.789062 122.351562 C 312.410156 120.839844 312.066406 119.316406 311.761719 117.785156 C 311.457031 116.257812 311.191406 114.722656 310.964844 113.179688 C 310.734375 111.636719 310.542969 110.085938 310.390625 108.535156 C 310.238281 106.984375 310.125 105.429688 310.046875 103.871094 C 309.96875 102.3125 309.933594 100.753906 309.933594 99.195312 C 309.933594 97.632812 309.96875 96.074219 310.046875 94.519531 C 310.125 92.960938 310.238281 91.40625 310.390625 89.851562 C 310.542969 88.300781 310.734375 86.753906 310.964844 85.210938 C 311.191406 83.667969 311.457031 82.132812 311.761719 80.601562 C 312.066406 79.070312 312.410156 77.550781 312.789062 76.039062 C 313.167969 74.523438 313.582031 73.023438 314.035156 71.527344 C 314.488281 70.035156 314.976562 68.554688 315.503906 67.085938 C 316.027344 65.617188 316.589844 64.164062 317.1875 62.722656 C 317.78125 61.28125 318.414062 59.855469 319.082031 58.445312 C 319.75 57.035156 320.449219 55.644531 321.183594 54.269531 C 321.921875 52.894531 322.6875 51.535156 323.492188 50.199219 C 324.292969 48.859375 325.125 47.542969 325.992188 46.246094 C 326.859375 44.949219 327.757812 43.675781 328.6875 42.421875 C 329.617188 41.167969 330.574219 39.941406 331.566406 38.734375 C 332.554688 37.527344 333.574219 36.347656 334.621094 35.191406 C 335.667969 34.035156 336.742188 32.90625 337.84375 31.804688 C 338.949219 30.703125 340.078125 29.625 341.234375 28.578125 C 342.390625 27.53125 343.570312 26.511719 344.773438 25.523438 C 345.980469 24.535156 347.210938 23.574219 348.464844 22.644531 C 349.714844 21.714844 350.992188 20.820312 352.289062 19.953125 C 353.585938 19.085938 354.902344 18.25 356.238281 17.449219 C 357.578125 16.648438 358.933594 15.878906 360.308594 15.144531 C 361.683594 14.410156 363.078125 13.707031 364.488281 13.039062 C 365.898438 12.375 367.324219 11.742188 368.765625 11.144531 C 370.207031 10.546875 371.660156 9.988281 373.128906 9.460938 C 374.597656 8.9375 376.078125 8.445312 377.570312 7.996094 C 379.0625 7.542969 380.566406 7.125 382.078125 6.746094 C 383.589844 6.367188 385.113281 6.027344 386.640625 5.722656 C 388.171875 5.417969 389.707031 5.152344 391.25 4.921875 C 392.792969 4.691406 394.339844 4.503906 395.894531 4.347656 C 397.445312 4.195312 399 4.082031 400.558594 4.003906 C 402.117188 3.929688 403.675781 3.890625 405.234375 3.890625 C 406.796875 3.890625 408.355469 3.929688 409.910156 4.003906 C 411.46875 4.082031 413.023438 4.195312 414.578125 4.347656 C 416.128906 4.503906 417.675781 4.691406 419.21875 4.921875 C 420.761719 5.152344 422.296875 5.417969 423.828125 5.722656 C 425.359375 6.027344 426.878906 6.367188 428.390625 6.746094 C 429.90625 7.125 431.40625 7.542969 432.902344 7.996094 C 434.394531 8.445312 435.875 8.9375 437.34375 9.460938 C 438.8125 9.988281 440.265625 10.546875 441.707031 11.144531 C 443.148438 11.742188 444.574219 12.375 445.984375 13.039062 C 447.394531 13.707031 448.785156 14.410156 450.160156 15.144531 C 451.535156 15.878906 452.894531 16.648438 454.230469 17.449219 C 455.570312 18.25 456.886719 19.085938 458.183594 19.953125 C 459.480469 20.820312 460.753906 21.714844 462.007812 22.644531 C 463.261719 23.574219 464.488281 24.535156 465.695312 25.523438 C 466.902344 26.511719 468.082031 27.53125 469.238281 28.578125 C 470.394531 29.625 471.523438 30.703125 472.625 31.804688 C 473.726562 32.90625 474.804688 34.035156 475.851562 35.191406 C 476.898438 36.347656 477.917969 37.527344 478.90625 38.734375 C 479.894531 39.941406 480.855469 41.167969 481.785156 42.421875 C 482.714844 43.675781 483.609375 44.949219 484.476562 46.246094 C 485.34375 47.542969 486.179688 48.859375 486.980469 50.199219 C 487.78125 51.535156 488.550781 52.894531 489.285156 54.269531 C 490.019531 55.644531 490.722656 57.035156 491.390625 58.445312 C 492.054688 59.855469 492.6875 61.28125 493.285156 62.722656 C 493.882812 64.164062 494.441406 65.617188 494.96875 67.085938 C 495.492188 68.554688 495.984375 70.035156 496.433594 71.527344 C 496.886719 73.023438 497.304688 74.523438 497.683594 76.039062 C 498.0625 77.550781 498.402344 79.070312 498.707031 80.601562 C 499.011719 82.132812 499.277344 83.667969 499.507812 85.210938 C 499.738281 86.753906 499.925781 88.300781 500.078125 89.851562 C 500.234375 91.40625 500.347656 92.960938 500.425781 94.519531 C 500.5 96.074219 500.539062 97.632812 500.539062 99.195312 Z M 500.539062 99.195312 " fill-opacity="1" fill-rule="nonzero"/></g></svg>