<svg xmlns="http://www.w3.org/2000/svg" xmlns:xlink="http://www.w3.org/1999/xlink" width="1080" zoomAndPan="magnify" viewBox="0 0 810 809.999993" height="1080" preserveAspectRatio="xMidYMid meet" version="1.0"><path fill="#f50a0a" d="M 361.488281 11.433594 C 179.167969 33.3125 29.664062 179.167969 7.789062 365.132812 C -17.738281 605.796875 171.875 809.992188 408.890625 809.992188 C 430.769531 809.992188 452.648438 806.347656 470.878906 799.054688 C 562.039062 773.527344 602.148438 660.492188 547.453125 580.269531 C 518.28125 540.160156 551.097656 481.816406 602.148438 481.816406 L 737.066406 481.816406 C 777.175781 481.816406 809.992188 449 809.992188 408.890625 C 809.992188 171.875 605.796875 -17.738281 361.488281 11.433594 Z M 408.890625 737.066406 C 368.78125 737.066406 335.960938 704.246094 335.960938 664.136719 C 335.960938 624.027344 368.78125 591.210938 408.890625 591.210938 C 449 591.210938 481.816406 624.027344 481.816406 664.136719 C 481.816406 704.246094 449 737.066406 408.890625 737.066406 Z M 645.90625 372.425781 C 616.734375 372.425781 591.210938 346.902344 591.210938 317.730469 C 591.210938 288.558594 616.734375 263.035156 645.90625 263.035156 C 675.078125 263.035156 700.601562 288.558594 700.601562 317.730469 C 700.601562 346.902344 675.078125 372.425781 645.90625 372.425781 Z M 500.050781 226.570312 C 470.878906 226.570312 445.355469 201.046875 445.355469 171.875 C 445.355469 142.703125 470.878906 117.179688 500.050781 117.179688 C 529.222656 117.179688 554.746094 142.703125 554.746094 171.875 C 554.746094 201.046875 529.222656 226.570312 500.050781 226.570312 Z M 317.730469 226.570312 C 288.558594 226.570312 263.035156 201.046875 263.035156 171.875 C 263.035156 142.703125 288.558594 117.179688 317.730469 117.179688 C 346.902344 117.179688 372.425781 142.703125 372.425781 171.875 C 372.425781 201.046875 346.902344 226.570312 317.730469 226.570312 Z M 171.875 335.960938 C 142.703125 335.960938 117.179688 310.4375 117.179688 281.265625 C 117.179688 252.09375 142.703125 226.570312 171.875 226.570312 C 201.046875 226.570312 226.570312 252.09375 226.570312 281.265625 C 226.570312 310.4375 201.046875 335.960938 171.875 335.960938 Z M 135.410156 518.28125 C 106.238281 518.28125 80.714844 492.757812 80.714844 463.585938 C 80.714844 434.414062 106.238281 408.890625 135.410156 408.890625 C 164.582031 408.890625 190.105469 434.414062 190.105469 463.585938 C 190.105469 492.757812 164.582031 518.28125 135.410156 518.28125 Z M 135.410156 518.28125 " fill-opacity="1" fill-rule="nonzero"/></svg>