<svg xmlns="http://www.w3.org/2000/svg" xmlns:xlink="http://www.w3.org/1999/xlink" width="1080" zoomAndPan="magnify" viewBox="0 0 810 809.999993" height="1080" preserveAspectRatio="xMidYMid meet" version="1.0"><defs><clipPath id="9b34af29eb"><path d="M 6.210938 211 L 385 211 L 385 708 L 6.210938 708 Z M 6.210938 211 " clip-rule="nonzero"/></clipPath><clipPath id="a157c31081"><path d="M 531 101.195312 L 803.460938 101.195312 L 803.460938 461 L 531 461 Z M 531 101.195312 " clip-rule="nonzero"/></clipPath></defs><g clip-path="url(#9b34af29eb)"><path fill="#f50a0a" d="M 373.367188 447.898438 C 231.542969 446.949219 206.21875 430.050781 205.144531 220.707031 C 205.121094 215.425781 200.816406 211.136719 195.5625 211.136719 C 190.304688 211.136719 186.011719 215.433594 185.984375 220.707031 C 184.90625 430.050781 159.578125 446.957031 17.761719 447.898438 C 11.390625 447.9375 6.210938 453.121094 6.210938 459.441406 C 6.210938 465.765625 11.390625 470.941406 17.757812 470.988281 C 159.574219 471.933594 184.90625 488.835938 185.976562 698.175781 C 186.003906 703.457031 190.304688 707.753906 195.554688 707.753906 C 200.8125 707.753906 205.113281 703.457031 205.140625 698.183594 C 206.210938 488.839844 231.542969 471.933594 373.359375 470.992188 C 379.726562 470.953125 384.90625 465.769531 384.90625 459.449219 C 384.90625 453.128906 379.726562 447.9375 373.367188 447.898438 Z M 373.367188 447.898438 " fill-opacity="1" fill-rule="nonzero"/></g><g clip-path="url(#a157c31081)"><path fill="#f50a0a" d="M 797.128906 274.453125 C 693.910156 273.765625 673.617188 260.292969 672.832031 107.199219 C 672.820312 104.324219 670.488281 101.988281 667.628906 101.988281 C 664.773438 101.988281 662.4375 104.324219 662.425781 107.199219 C 661.640625 260.292969 641.34375 273.765625 538.128906 274.453125 C 534.460938 274.480469 531.480469 277.445312 531.480469 281.082031 C 531.480469 284.714844 534.460938 287.691406 538.128906 287.71875 C 641.347656 288.402344 661.640625 301.878906 662.425781 454.96875 C 662.4375 457.839844 664.777344 460.175781 667.628906 460.175781 C 670.480469 460.175781 672.820312 457.839844 672.832031 454.96875 C 673.617188 301.871094 693.917969 288.402344 797.128906 287.71875 C 800.796875 287.691406 803.777344 284.714844 803.777344 281.082031 C 803.777344 277.445312 800.796875 274.480469 797.128906 274.453125 Z M 797.128906 274.453125 " fill-opacity="1" fill-rule="nonzero"/></g><path fill="#f50a0a" d="M 528.996094 550.632812 C 522.492188 569.695312 511.410156 583.96875 497.003906 591.695312 C 511.410156 599.429688 522.492188 613.691406 528.996094 632.761719 C 535.5 613.691406 546.582031 599.429688 560.992188 591.695312 C 546.582031 583.96875 535.5 569.695312 528.996094 550.632812 Z M 528.996094 550.632812 " fill-opacity="1" fill-rule="nonzero"/><path fill="#f50a0a" d="M 340.3125 245.660156 C 346.816406 226.597656 357.898438 212.328125 372.308594 204.601562 C 357.898438 196.867188 346.816406 182.601562 340.3125 163.539062 C 333.808594 182.601562 322.726562 196.871094 308.320312 204.601562 C 322.734375 212.328125 333.816406 226.597656 340.3125 245.660156 Z M 340.3125 245.660156 " fill-opacity="1" fill-rule="nonzero"/></svg>