<svg xmlns="http://www.w3.org/2000/svg" xmlns:xlink="http://www.w3.org/1999/xlink" width="1080" zoomAndPan="magnify" viewBox="0 0 810 809.999993" height="1080" preserveAspectRatio="xMidYMid meet" version="1.0"><defs><clipPath id="394f499100"><path d="M 78.632812 86 L 731.359375 86 L 731.359375 159.316406 L 78.632812 159.316406 Z M 78.632812 86 " clip-rule="nonzero"/></clipPath><clipPath id="0beae48dae"><path d="M 285 8.082031 L 524 8.082031 L 524 115 L 285 115 Z M 285 8.082031 " clip-rule="nonzero"/></clipPath><clipPath id="e8208465d2"><path d="M 115 191.496094 L 694.839844 191.496094 L 694.839844 801.582031 L 115 801.582031 Z M 115 191.496094 " clip-rule="nonzero"/></clipPath></defs><g clip-path="url(#394f499100)"><path fill="#f50a0a" d="M 695.097656 159.097656 L 114.894531 159.097656 C 94.867188 159.097656 78.632812 142.863281 78.632812 122.832031 C 78.632812 102.808594 94.867188 86.570312 114.894531 86.570312 L 695.097656 86.570312 C 715.125 86.570312 731.367188 102.808594 731.367188 122.832031 C 731.367188 142.863281 715.125 159.097656 695.097656 159.097656 " fill-opacity="1" fill-rule="nonzero"/></g><g clip-path="url(#0beae48dae)"><path fill="#f50a0a" d="M 503.355469 114.882812 C 492.382812 114.882812 483.484375 105.992188 483.484375 95.015625 L 483.484375 47.824219 L 325.515625 47.824219 L 325.515625 95.015625 C 325.515625 105.992188 316.625 114.882812 305.644531 114.882812 C 294.671875 114.882812 285.777344 105.992188 285.777344 95.015625 L 285.777344 32.96875 C 285.777344 18.5 298.691406 8.085938 315.820312 8.085938 L 493.996094 8.085938 C 510.65625 8.085938 523.226562 18.5 523.226562 32.96875 L 523.226562 95.015625 C 523.226562 105.992188 514.328125 114.882812 503.355469 114.882812 " fill-opacity="1" fill-rule="nonzero"/></g><g clip-path="url(#e8208465d2)"><path fill="#f50a0a" d="M 586.269531 259.011719 L 548.515625 735.890625 C 547.964844 742.910156 542.089844 748.246094 535.164062 748.246094 C 534.804688 748.246094 534.445312 748.226562 534.085938 748.203125 C 526.703125 747.617188 521.191406 741.15625 521.777344 733.773438 L 559.527344 256.894531 C 560.113281 249.507812 566.578125 243.996094 573.957031 244.582031 C 581.34375 245.167969 586.855469 251.625 586.269531 259.011719 Z M 417.914062 735.464844 C 417.90625 742.867188 411.898438 749.238281 404.503906 749.238281 C 404.496094 749.238281 404.488281 749.238281 404.484375 749.238281 C 397.082031 748.246094 391.078125 742.722656 391.089844 735.3125 L 391.585938 258.683594 C 391.59375 251.28125 397.59375 245.53125 405 245.53125 C 405.003906 245.53125 405.003906 245.53125 405.011719 245.53125 C 412.421875 245.53125 418.417969 251.179688 418.410156 258.585938 Z M 275.902344 748.203125 C 275.546875 748.226562 275.1875 748.246094 274.835938 748.246094 C 267.902344 748.246094 262.035156 742.910156 261.480469 735.890625 L 223.722656 259.011719 C 223.136719 251.625 228.65625 245.167969 236.039062 244.582031 C 243.417969 244.003906 249.878906 249.507812 250.464844 256.894531 L 288.222656 733.773438 C 288.808594 741.15625 283.289062 747.617188 275.902344 748.203125 Z M 115.386719 191.882812 L 176.804688 762.425781 C 179.363281 784.132812 199.34375 801.894531 221.203125 801.894531 L 588.796875 801.894531 C 610.65625 801.894531 630.628906 784.132812 633.191406 762.425781 L 694.613281 191.882812 L 115.386719 191.882812 " fill-opacity="1" fill-rule="nonzero"/></g></svg>